<svg width="42" height="42" viewBox="0 0 42 42" fill="none" xmlns="http://www.w3.org/2000/svg">
<path d="M39.2367 8.3277H37.6561V5.51827C37.6562 2.47063 35.1855 0 32.1379 0H9.86209C6.81444 0 4.34382 2.47063 4.34382 5.51827V8.3277H2.76327C2.12868 8.3277 1.61425 8.84213 1.61425 9.47682V15.8417C1.61425 16.4763 2.12868 16.9907 2.76327 16.9907H4.34392V30.7104C3.72912 31.2614 3.34207 32.0614 3.34207 32.952V35.0784C3.34207 36.7408 4.68963 38.0883 6.35203 38.0883H6.72443V41.1146C6.72443 41.6036 7.12111 42 7.61011 42H11.6824C12.1714 42 12.5677 41.6036 12.5677 41.1146V38.0883H29.4324V41.1146C29.4324 41.6036 29.8287 42 30.3178 42H34.39C34.879 42 35.2756 41.6036 35.2756 41.1146V38.0883H35.6481C37.3104 38.0883 38.658 36.7408 38.658 35.0784V32.952C38.658 32.0615 38.271 31.2614 37.6562 30.7104V16.9906H39.2368C39.8713 16.9906 40.3858 16.4762 40.3858 15.8416V9.47671C40.3857 8.84213 39.8714 8.3277 39.2367 8.3277ZM34.2439 8.77671V22.355H22.505V8.77671H34.2439ZM15.1474 2.87725H26.8527C27.6654 2.87725 28.3243 3.53601 28.3243 4.34884C28.3243 5.16147 27.6656 5.82033 26.8527 5.82033H15.1474C14.3346 5.82033 13.6758 5.16147 13.6758 4.34884C13.6758 3.53601 14.3346 2.87725 15.1474 2.87725ZM7.75622 8.77671H19.4951V22.355H7.75622V8.77671ZM13.0102 28.4128C13.0102 29.2127 12.3596 29.8632 11.5595 29.8632H9.16575C8.36705 29.8632 7.71655 29.2126 7.71655 28.4128V26.7988C7.71655 25.9987 8.36705 25.3483 9.16575 25.3483H11.5595C12.3596 25.3483 13.0102 25.9988 13.0102 26.7988V28.4128ZM28.99 28.4128V26.7988C28.99 25.9987 29.6405 25.3483 30.4405 25.3483H32.8343C33.633 25.3483 34.2835 25.9988 34.2835 26.7988V28.4128C34.2835 29.2127 33.633 29.8632 32.8343 29.8632H30.4405C29.6406 29.8633 28.99 29.2126 28.99 28.4128Z" fill="white"/>
</svg>
